<?xml version="1.0"?><svg width="640" height="480" xmlns="http://www.w3.org/2000/svg">
 <g>
  <title>Layer 1</title>
  <path fill="#ffd400" fill-rule="evenodd" stroke="#ffd400" stroke-width="1.0000000pt" id="path3500" d="m477.570892,323.291809c0,-15.104492 -12.244598,-27.34906 -27.34906,-27.34906c-15.104462,0 -27.349091,12.244568 -27.349091,27.34906c0,15.104431 12.244629,27.349091 27.349091,27.349091c15.104462,0 27.34906,-12.244659 27.34906,-27.349091z"/>
  <path fill="#ffda0c" fill-rule="evenodd" stroke="#ffffff" stroke-width="1.116893" id="path4747" d="m82.088303,195.879944l19.98838,0c4.43866,0 8.012047,3.573303 8.012047,8.011963l0,100.901611c0,4.43866 -3.573402,8.012054 -8.012047,8.012054l-19.98838,0c-4.43866,0 -8.011963,-3.573395 -8.011963,-8.012054l0,-100.901611c0,-4.43866 3.573303,-8.011963 8.011963,-8.011963zm412.536423,-0.333847l67.402557,0c13.571777,0 23.150208,8.375732 23.150208,16.90271l0,23.99202c0,4.43866 -3.573303,8.012054 -8.012024,8.012054l-82.540741,0c-4.43866,0 -8.011963,-3.573395 -8.011963,-8.012054l0,-32.882675c0,-4.438675 3.573303,-8.012054 8.011963,-8.012054zm-116.88385,0l82.498871,0c4.43866,0 8.012115,3.57338 8.012115,8.012054l0,32.882675c0,4.43866 -3.573456,8.012054 -8.012115,8.012054l-82.498871,0c-4.43869,0 -8.012024,-3.573395 -8.012024,-8.012054l0,-32.882675c0,-4.438675 3.573334,-8.012054 8.012024,-8.012054zm-117.593323,0l82.540649,0c4.43866,0 8.011993,3.57338 8.011993,8.012054l0,32.882675c0,4.43866 -3.573334,8.012054 -8.011993,8.012054l-82.540649,0c-4.438721,0 -8.012115,-3.573395 -8.012115,-8.012054l0,-32.882675c0,-4.438675 3.573395,-8.012054 8.012115,-8.012054zm-117.927231,0l82.540726,0c4.43866,0 8.012054,3.57338 8.011963,8.012054l0,32.882675c0,4.43866 -3.573303,8.012054 -8.011963,8.012054l-82.540726,0c-4.43866,0 -8.012054,-3.573395 -8.012054,-8.012054l0,-32.882675c0,-4.438675 3.573395,-8.012054 8.012054,-8.012054zm433.484634,-28.41774l-108.66333,0.166931l-69.228973,0.166931l-69.270721,0.125229l-69.270782,0.166824l-69.228973,0.125244l-130.779804,-0.500763c-4.448872,0.326447 -8.019531,3.194931 -8.220661,7.344345l-3.33559,75.154587l-7.46822,5.758652l0,36.763565l0.12524,28.206299c-0.137371,7.486938 5.512081,11.484375 11.14167,11.642456l56.873066,0l25.442726,0c-1.22467,-3.417145 -2.044724,-5.090515 -2.044724,-8.927307c-0.339859,-19.435547 15.366913,-35.18399 35.482071,-35.18399c20.7948,0 34.50441,17.44754 34.334473,35.18399c0,3.83252 -0.780991,5.513367 -2.003021,8.927307l121.858536,0l95.8367,0.240356c-1.22464,-3.417236 -2.044769,-5.090576 -2.044769,-8.927307c-0.240234,-19.588409 15.520386,-35.348999 36.069855,-35.108643c20.789764,0 34.105652,16.962006 34.105652,34.868286c0.120209,5.094757 -0.353912,6.959961 -0.353912,9.496857l119.478455,-23.743927l0.667664,-116.115448c0.189758,-13.187836 -16.269531,-26.235382 -29.502625,-25.830475z"/>
  <path fill="#ffd400" fill-rule="evenodd" stroke="#ffe256" stroke-width="1.0000000pt" id="path4749" d="m194.085846,323.75885c0,-15.104492 -12.244598,-27.34903 -27.349075,-27.34903c-15.104477,0 -27.349075,12.244537 -27.349075,27.34903c0,15.104462 12.244598,27.349091 27.349075,27.349091c15.104477,0 27.349075,-12.244629 27.349075,-27.349091z"/>
 </g>

</svg>